<svg xmlns="http://www.w3.org/2000/svg" width="1544" height="500" viewBox="0 0 1544 500">
  <defs>
    <linearGradient id="bg2x" x1="0%" y1="0%" x2="100%" y2="100%">
      <stop offset="0%" stop-color="#1e1b4b"/>
      <stop offset="50%" stop-color="#312e81"/>
      <stop offset="100%" stop-color="#1e1b4b"/>
    </linearGradient>
  </defs>
  <rect width="1544" height="500" fill="url(#bg2x)"/>
  <!-- Subtle star field -->
  <circle cx="60" cy="80" r="2" fill="#e2e8f0" opacity="0.3"/>
  <circle cx="300" cy="40" r="3" fill="#e2e8f0" opacity="0.2"/>
  <circle cx="600" cy="60" r="2" fill="#e2e8f0" opacity="0.25"/>
  <circle cx="840" cy="30" r="2" fill="#e2e8f0" opacity="0.2"/>
  <circle cx="1000" cy="90" r="3" fill="#e2e8f0" opacity="0.15"/>
  <circle cx="360" cy="460" r="2" fill="#e2e8f0" opacity="0.2"/>
  <circle cx="700" cy="440" r="3" fill="#e2e8f0" opacity="0.15"/>
  <circle cx="150" cy="400" r="2" fill="#e2e8f0" opacity="0.2"/>
  <circle cx="950" cy="450" r="2" fill="#e2e8f0" opacity="0.15"/>
  <!-- Zodiac wheel on the right -->
  <circle cx="1260" cy="250" r="170" fill="none" stroke="#a78bfa" stroke-width="3" opacity="0.35"/>
  <circle cx="1260" cy="250" r="130" fill="none" stroke="#7c3aed" stroke-width="2.5" opacity="0.3"/>
  <circle cx="1260" cy="250" r="90" fill="none" stroke="#a78bfa" stroke-width="2" opacity="0.25"/>
  <!-- Cross lines -->
  <line x1="1260" y1="80" x2="1260" y2="420" stroke="#6d28d9" stroke-width="1" opacity="0.2"/>
  <line x1="1090" y1="250" x2="1430" y2="250" stroke="#6d28d9" stroke-width="1" opacity="0.2"/>
  <line x1="1140" y1="130" x2="1380" y2="370" stroke="#6d28d9" stroke-width="0.5" opacity="0.15"/>
  <line x1="1380" y1="130" x2="1140" y2="370" stroke="#6d28d9" stroke-width="0.5" opacity="0.15"/>
  <!-- Planet dots -->
  <circle cx="1260" cy="80" r="6" fill="#facc15" opacity="0.7"/>
  <circle cx="1380" cy="140" r="5" fill="#f97316" opacity="0.6"/>
  <circle cx="1420" cy="250" r="5" fill="#ef4444" opacity="0.7"/>
  <circle cx="1380" cy="360" r="4.5" fill="#a78bfa" opacity="0.6"/>
  <circle cx="1260" cy="410" r="6" fill="#38bdf8" opacity="0.7"/>
  <circle cx="1140" cy="360" r="4.5" fill="#34d399" opacity="0.6"/>
  <circle cx="1100" cy="250" r="5" fill="#facc15" opacity="0.7"/>
  <circle cx="1140" cy="140" r="4.5" fill="#fb923c" opacity="0.6"/>
  <!-- Moon crescent -->
  <path d="M1290 220 A36 36 0 1 1 1290 280 A24 24 0 1 0 1290 220Z" fill="#c4b5fd" opacity="0.5"/>
  <!-- Title text -->
  <text x="110" y="210" font-family="system-ui, sans-serif" font-size="80" font-weight="700" fill="#f8fafc" letter-spacing="2">Astrologer API</text>
  <text x="110" y="296" font-family="system-ui, sans-serif" font-size="52" font-weight="400" fill="#c4b5fd">Playground</text>
  <text x="110" y="380" font-family="system-ui, sans-serif" font-size="26" fill="#94a3b8">Natal charts, synastry, transits, composites, returns &amp; more</text>
</svg>
