<svg xmlns="http://www.w3.org/2000/svg" width="1544" height="500" viewBox="0 0 1544 500">
  <!-- Placeholder: Replace with your final hi-DPI banner (1544x500 PNG) -->
  <defs>
    <linearGradient id="bg2x" x1="0%" y1="0%" x2="100%" y2="100%">
      <stop offset="0%" stop-color="#1e1b4b"/>
      <stop offset="100%" stop-color="#312e81"/>
    </linearGradient>
  </defs>
  <rect width="1544" height="500" fill="url(#bg2x)"/>
  <!-- Decorative circles -->
  <circle cx="1300" cy="250" r="160" fill="none" stroke="#a78bfa" stroke-width="3" opacity="0.3"/>
  <circle cx="1300" cy="250" r="120" fill="none" stroke="#7c3aed" stroke-width="2.5" opacity="0.3"/>
  <circle cx="1300" cy="250" r="80" fill="none" stroke="#a78bfa" stroke-width="2" opacity="0.3"/>
  <!-- Star dots -->
  <circle cx="1300" cy="110" r="5" fill="#facc15" opacity="0.6"/>
  <circle cx="1420" cy="170" r="4" fill="#facc15" opacity="0.5"/>
  <circle cx="1440" cy="270" r="4" fill="#facc15" opacity="0.6"/>
  <circle cx="1390" cy="370" r="5" fill="#facc15" opacity="0.5"/>
  <circle cx="1240" cy="400" r="4" fill="#facc15" opacity="0.6"/>
  <circle cx="1170" cy="330" r="4" fill="#facc15" opacity="0.5"/>
  <circle cx="1160" cy="210" r="5" fill="#facc15" opacity="0.6"/>
  <circle cx="1210" cy="130" r="4" fill="#facc15" opacity="0.5"/>
  <!-- Moon -->
  <path d="M1320 220 A36 36 0 1 1 1320 280 A24 24 0 1 0 1320 220Z" fill="#c4b5fd" opacity="0.5"/>
  <!-- Title text -->
  <text x="120" y="220" font-family="sans-serif" font-size="84" font-weight="bold" fill="#f8fafc">Astrologer API</text>
  <text x="120" y="300" font-family="sans-serif" font-size="56" fill="#c4b5fd">Playground</text>
  <text x="120" y="380" font-family="sans-serif" font-size="28" fill="#94a3b8">Astrology charts, forms, and data for WordPress</text>
</svg>
