<svg xmlns="http://www.w3.org/2000/svg" width="772" height="250" viewBox="0 0 772 250">
  <!-- Placeholder: Replace with your final banner (772x250 PNG) -->
  <defs>
    <linearGradient id="bg" x1="0%" y1="0%" x2="100%" y2="100%">
      <stop offset="0%" stop-color="#1e1b4b"/>
      <stop offset="100%" stop-color="#312e81"/>
    </linearGradient>
  </defs>
  <rect width="772" height="250" fill="url(#bg)"/>
  <!-- Decorative circles (zodiac wheel hints) -->
  <circle cx="650" cy="125" r="80" fill="none" stroke="#a78bfa" stroke-width="2" opacity="0.3"/>
  <circle cx="650" cy="125" r="60" fill="none" stroke="#7c3aed" stroke-width="1.5" opacity="0.3"/>
  <circle cx="650" cy="125" r="40" fill="none" stroke="#a78bfa" stroke-width="1" opacity="0.3"/>
  <!-- Star dots -->
  <circle cx="650" cy="55" r="3" fill="#facc15" opacity="0.6"/>
  <circle cx="710" cy="85" r="2.5" fill="#facc15" opacity="0.5"/>
  <circle cx="720" cy="135" r="2" fill="#facc15" opacity="0.6"/>
  <circle cx="695" cy="185" r="3" fill="#facc15" opacity="0.5"/>
  <circle cx="620" cy="200" r="2.5" fill="#facc15" opacity="0.6"/>
  <circle cx="585" cy="165" r="2" fill="#facc15" opacity="0.5"/>
  <circle cx="580" cy="105" r="3" fill="#facc15" opacity="0.6"/>
  <circle cx="605" cy="65" r="2.5" fill="#facc15" opacity="0.5"/>
  <!-- Moon -->
  <path d="M660 110 A18 18 0 1 1 660 140 A12 12 0 1 0 660 110Z" fill="#c4b5fd" opacity="0.5"/>
  <!-- Title text -->
  <text x="60" y="110" font-family="sans-serif" font-size="42" font-weight="bold" fill="#f8fafc">Astrologer API</text>
  <text x="60" y="150" font-family="sans-serif" font-size="28" fill="#c4b5fd">Playground</text>
  <text x="60" y="190" font-family="sans-serif" font-size="14" fill="#94a3b8">Astrology charts, forms, and data for WordPress</text>
</svg>
