<svg xmlns="http://www.w3.org/2000/svg" width="1200" height="900" viewBox="0 0 1200 900">
  <!-- Background -->
  <rect width="1200" height="900" fill="#f8fafc"/>
  <!-- WP Admin bar -->
  <rect width="1200" height="32" fill="#1d2327"/>
  <text x="20" y="22" font-family="system-ui, sans-serif" font-size="13" fill="#f0f0f1">WordPress</text>
  <!-- Page title -->
  <text x="40" y="80" font-family="system-ui, sans-serif" font-size="24" font-weight="600" fill="#1e293b">Natal Chart Analysis</text>

  <!-- Aspects table card -->
  <rect x="40" y="100" width="540" height="380" rx="8" fill="white" stroke="#e2e8f0" stroke-width="1"/>
  <text x="60" y="130" font-family="system-ui, sans-serif" font-size="15" font-weight="600" fill="#1e293b">Aspects</text>
  <!-- Table header -->
  <rect x="60" y="142" width="500" height="30" fill="#f8fafc"/>
  <text x="75" y="162" font-family="system-ui, sans-serif" font-size="11" font-weight="600" fill="#64748b">Planet 1</text>
  <text x="180" y="162" font-family="system-ui, sans-serif" font-size="11" font-weight="600" fill="#64748b">Aspect</text>
  <text x="300" y="162" font-family="system-ui, sans-serif" font-size="11" font-weight="600" fill="#64748b">Planet 2</text>
  <text x="420" y="162" font-family="system-ui, sans-serif" font-size="11" font-weight="600" fill="#64748b">Orb</text>
  <!-- Rows -->
  <line x1="60" y1="172" x2="560" y2="172" stroke="#e2e8f0" stroke-width="1"/>
  <text x="75" y="195" font-family="system-ui, sans-serif" font-size="12" fill="#334155">Sun</text>
  <text x="180" y="195" font-family="system-ui, sans-serif" font-size="12" fill="#ef4444">Opposition</text>
  <text x="300" y="195" font-family="system-ui, sans-serif" font-size="12" fill="#334155">Moon</text>
  <text x="420" y="195" font-family="system-ui, sans-serif" font-size="12" fill="#64748b">2.34</text>
  <line x1="60" y1="208" x2="560" y2="208" stroke="#f1f5f9" stroke-width="1"/>
  <text x="75" y="230" font-family="system-ui, sans-serif" font-size="12" fill="#334155">Sun</text>
  <text x="180" y="230" font-family="system-ui, sans-serif" font-size="12" fill="#3b82f6">Trine</text>
  <text x="300" y="230" font-family="system-ui, sans-serif" font-size="12" fill="#334155">Jupiter</text>
  <text x="420" y="230" font-family="system-ui, sans-serif" font-size="12" fill="#64748b">1.45</text>
  <line x1="60" y1="243" x2="560" y2="243" stroke="#f1f5f9" stroke-width="1"/>
  <text x="75" y="265" font-family="system-ui, sans-serif" font-size="12" fill="#334155">Moon</text>
  <text x="180" y="265" font-family="system-ui, sans-serif" font-size="12" fill="#22c55e">Sextile</text>
  <text x="300" y="265" font-family="system-ui, sans-serif" font-size="12" fill="#334155">Venus</text>
  <text x="420" y="265" font-family="system-ui, sans-serif" font-size="12" fill="#64748b">0.87</text>
  <line x1="60" y1="278" x2="560" y2="278" stroke="#f1f5f9" stroke-width="1"/>
  <text x="75" y="300" font-family="system-ui, sans-serif" font-size="12" fill="#334155">Mercury</text>
  <text x="180" y="300" font-family="system-ui, sans-serif" font-size="12" fill="#facc15">Conjunction</text>
  <text x="300" y="300" font-family="system-ui, sans-serif" font-size="12" fill="#334155">Venus</text>
  <text x="420" y="300" font-family="system-ui, sans-serif" font-size="12" fill="#64748b">3.12</text>
  <line x1="60" y1="313" x2="560" y2="313" stroke="#f1f5f9" stroke-width="1"/>
  <text x="75" y="335" font-family="system-ui, sans-serif" font-size="12" fill="#334155">Mars</text>
  <text x="180" y="335" font-family="system-ui, sans-serif" font-size="12" fill="#ef4444">Square</text>
  <text x="300" y="335" font-family="system-ui, sans-serif" font-size="12" fill="#334155">Saturn</text>
  <text x="420" y="335" font-family="system-ui, sans-serif" font-size="12" fill="#64748b">4.56</text>

  <!-- Elements chart -->
  <rect x="620" y="100" width="540" height="180" rx="8" fill="white" stroke="#e2e8f0" stroke-width="1"/>
  <text x="640" y="130" font-family="system-ui, sans-serif" font-size="15" font-weight="600" fill="#1e293b">Elements Distribution</text>
  <!-- Bar chart -->
  <text x="650" y="160" font-family="system-ui, sans-serif" font-size="12" fill="#ef4444">Fire</text>
  <rect x="700" y="148" width="280" height="16" rx="4" fill="#fecaca"/>
  <rect x="700" y="148" width="180" height="16" rx="4" fill="#ef4444"/>
  <text x="720" y="161" font-family="system-ui, sans-serif" font-size="10" font-weight="600" fill="white">35%</text>

  <text x="650" y="185" font-family="system-ui, sans-serif" font-size="12" fill="#22c55e">Earth</text>
  <rect x="700" y="173" width="280" height="16" rx="4" fill="#bbf7d0"/>
  <rect x="700" y="173" width="130" height="16" rx="4" fill="#22c55e"/>
  <text x="720" y="186" font-family="system-ui, sans-serif" font-size="10" font-weight="600" fill="white">25%</text>

  <text x="650" y="210" font-family="system-ui, sans-serif" font-size="12" fill="#eab308">Air</text>
  <rect x="700" y="198" width="280" height="16" rx="4" fill="#fef9c3"/>
  <rect x="700" y="198" width="110" height="16" rx="4" fill="#eab308"/>
  <text x="720" y="211" font-family="system-ui, sans-serif" font-size="10" font-weight="600" fill="white">20%</text>

  <text x="650" y="235" font-family="system-ui, sans-serif" font-size="12" fill="#3b82f6">Water</text>
  <rect x="700" y="223" width="280" height="16" rx="4" fill="#bfdbfe"/>
  <rect x="700" y="223" width="100" height="16" rx="4" fill="#3b82f6"/>
  <text x="720" y="236" font-family="system-ui, sans-serif" font-size="10" font-weight="600" fill="white">20%</text>

  <!-- Modalities chart -->
  <rect x="620" y="300" width="540" height="180" rx="8" fill="white" stroke="#e2e8f0" stroke-width="1"/>
  <text x="640" y="330" font-family="system-ui, sans-serif" font-size="15" font-weight="600" fill="#1e293b">Modalities Distribution</text>
  <!-- Bar chart -->
  <text x="650" y="365" font-family="system-ui, sans-serif" font-size="12" fill="#7c3aed">Cardinal</text>
  <rect x="730" y="353" width="280" height="16" rx="4" fill="#ede9fe"/>
  <rect x="730" y="353" width="160" height="16" rx="4" fill="#7c3aed"/>
  <text x="750" y="366" font-family="system-ui, sans-serif" font-size="10" font-weight="600" fill="white">40%</text>

  <text x="650" y="395" font-family="system-ui, sans-serif" font-size="12" fill="#06b6d4">Fixed</text>
  <rect x="730" y="383" width="280" height="16" rx="4" fill="#cffafe"/>
  <rect x="730" y="383" width="120" height="16" rx="4" fill="#06b6d4"/>
  <text x="750" y="396" font-family="system-ui, sans-serif" font-size="10" font-weight="600" fill="white">30%</text>

  <text x="650" y="425" font-family="system-ui, sans-serif" font-size="12" fill="#f97316">Mutable</text>
  <rect x="730" y="413" width="280" height="16" rx="4" fill="#fed7aa"/>
  <rect x="730" y="413" width="120" height="16" rx="4" fill="#f97316"/>
  <text x="750" y="426" font-family="system-ui, sans-serif" font-size="10" font-weight="600" fill="white">30%</text>

  <!-- Moon Phase card -->
  <rect x="40" y="500" width="540" height="120" rx="8" fill="white" stroke="#e2e8f0" stroke-width="1"/>
  <text x="60" y="530" font-family="system-ui, sans-serif" font-size="15" font-weight="600" fill="#1e293b">Moon Phase</text>
  <text x="60" y="570" font-family="system-ui, sans-serif" font-size="40" fill="#334155">🌔</text>
  <text x="120" y="565" font-family="system-ui, sans-serif" font-size="16" fill="#334155">Waxing Gibbous</text>
  <text x="120" y="590" font-family="system-ui, sans-serif" font-size="12" fill="#64748b">Sun-Moon angle: 234.5</text>

  <!-- Positions table -->
  <rect x="620" y="500" width="540" height="340" rx="8" fill="white" stroke="#e2e8f0" stroke-width="1"/>
  <text x="640" y="530" font-family="system-ui, sans-serif" font-size="15" font-weight="600" fill="#1e293b">Planetary Positions</text>
  <rect x="640" y="542" width="500" height="28" fill="#f8fafc"/>
  <text x="655" y="561" font-family="system-ui, sans-serif" font-size="11" font-weight="600" fill="#64748b">Planet</text>
  <text x="780" y="561" font-family="system-ui, sans-serif" font-size="11" font-weight="600" fill="#64748b">Sign</text>
  <text x="900" y="561" font-family="system-ui, sans-serif" font-size="11" font-weight="600" fill="#64748b">Degree</text>
  <text x="1020" y="561" font-family="system-ui, sans-serif" font-size="11" font-weight="600" fill="#64748b">House</text>
  <line x1="640" y1="570" x2="1140" y2="570" stroke="#e2e8f0" stroke-width="1"/>
  <!-- Rows -->
  <text x="655" y="593" font-family="system-ui, sans-serif" font-size="12" fill="#334155">Sun</text>
  <text x="780" y="593" font-family="system-ui, sans-serif" font-size="12" fill="#ef4444">Taurus &#x2649;</text>
  <text x="900" y="593" font-family="system-ui, sans-serif" font-size="12" fill="#64748b">24° 15'</text>
  <text x="1020" y="593" font-family="system-ui, sans-serif" font-size="12" fill="#64748b">X</text>
  <line x1="640" y1="605" x2="1140" y2="605" stroke="#f1f5f9" stroke-width="1"/>
  <text x="655" y="625" font-family="system-ui, sans-serif" font-size="12" fill="#334155">Moon</text>
  <text x="780" y="625" font-family="system-ui, sans-serif" font-size="12" fill="#3b82f6">Scorpio &#x264F;</text>
  <text x="900" y="625" font-family="system-ui, sans-serif" font-size="12" fill="#64748b">18° 42'</text>
  <text x="1020" y="625" font-family="system-ui, sans-serif" font-size="12" fill="#64748b">IV</text>
  <line x1="640" y1="637" x2="1140" y2="637" stroke="#f1f5f9" stroke-width="1"/>
  <text x="655" y="657" font-family="system-ui, sans-serif" font-size="12" fill="#334155">Mercury</text>
  <text x="780" y="657" font-family="system-ui, sans-serif" font-size="12" fill="#22c55e">Gemini &#x264A;</text>
  <text x="900" y="657" font-family="system-ui, sans-serif" font-size="12" fill="#64748b">5° 33'</text>
  <text x="1020" y="657" font-family="system-ui, sans-serif" font-size="12" fill="#64748b">XI</text>
  <line x1="640" y1="669" x2="1140" y2="669" stroke="#f1f5f9" stroke-width="1"/>
  <text x="655" y="689" font-family="system-ui, sans-serif" font-size="12" fill="#334155">Venus</text>
  <text x="780" y="689" font-family="system-ui, sans-serif" font-size="12" fill="#eab308">Gemini &#x264A;</text>
  <text x="900" y="689" font-family="system-ui, sans-serif" font-size="12" fill="#64748b">8° 45'</text>
  <text x="1020" y="689" font-family="system-ui, sans-serif" font-size="12" fill="#64748b">XI</text>
  <line x1="640" y1="701" x2="1140" y2="701" stroke="#f1f5f9" stroke-width="1"/>
  <text x="655" y="721" font-family="system-ui, sans-serif" font-size="12" fill="#334155">Mars</text>
  <text x="780" y="721" font-family="system-ui, sans-serif" font-size="12" fill="#ef4444">Pisces &#x2653;</text>
  <text x="900" y="721" font-family="system-ui, sans-serif" font-size="12" fill="#64748b">12° 08'</text>
  <text x="1020" y="721" font-family="system-ui, sans-serif" font-size="12" fill="#64748b">VIII</text>
</svg>
